<svg width="8" height="9" viewBox="0 0 8 9" fill="none" xmlns="http://www.w3.org/2000/svg">
<path d="M2.1425 4.64304C2.1425 4.47129 2.2795 4.32504 2.455 4.32504C2.6305 4.32504 2.7675 4.47129 2.7675 4.64304V5.00704C2.7675 5.17879 2.6305 5.32504 2.455 5.32504C2.2795 5.32504 2.1425 5.17879 2.1425 5.00704V4.64304ZM5.1475 4.64304C5.1475 4.47129 5.2845 4.32504 5.46 4.32504C5.6355 4.32504 5.7725 4.47129 5.7725 4.64304V5.00704C5.7725 5.17879 5.6355 5.32504 5.46 5.32504C5.2845 5.32504 5.1475 5.17879 5.1475 5.00704V4.64304ZM3.0325 6.10004C3.0325 6.60754 3.4475 7.02504 3.9575 7.02504C4.465 7.02504 4.8825 6.60754 4.8825 6.10004V5.41504C4.8825 4.90754 4.4675 4.49004 3.9575 4.49004C3.71238 4.4907 3.47748 4.58837 3.30416 4.76169C3.13083 4.93502 3.03316 5.16992 3.0325 5.41504V6.10004ZM2.796 2.29254C2.42025 2.55579 2.12775 2.94254 1.96825 3.39779L1.96375 3.39079L1.86675 3.68879C1.68837 3.63328 1.53237 3.52229 1.42144 3.37197C1.31051 3.22165 1.25045 3.03985 1.25 2.85304C1.25066 2.62118 1.34306 2.399 1.50701 2.23505C1.67096 2.0711 1.89314 1.9787 2.125 1.97804C2.3935 1.97804 2.635 2.10029 2.796 2.29254ZM6.03175 3.39779C5.87225 2.94254 5.57975 2.55579 5.204 2.29279C5.28595 2.19433 5.38852 2.11506 5.50446 2.06059C5.62041 2.00611 5.7469 1.97776 5.875 1.97754C6.10686 1.9782 6.32904 2.0706 6.49299 2.23455C6.65694 2.3985 6.74934 2.62068 6.75 2.85254C6.7496 3.0394 6.68957 3.22125 6.57864 3.37162C6.4677 3.52198 6.31167 3.63301 6.13325 3.68854L6.03625 3.39054L6.03175 3.39779Z" fill="white"/>
<path d="M2.075 1C1.072 1 0.25 1.822 0.25 2.825C0.250288 3.13048 0.327252 3.431 0.473838 3.69901C0.620424 3.96703 0.831941 4.19396 1.089 4.359L0.89525 4.919C0.773871 5.18103 0.710672 5.46623 0.71 5.755C0.71 6.766 1.4585 7.5985 2.43 7.7355V7.7575H5.2275C5.75838 7.7575 6.26753 7.54669 6.64304 7.17142C7.01855 6.79615 7.22967 6.28713 7.23 5.75625C7.23165 5.47184 7.17107 5.19052 7.0525 4.932L6.8545 4.3605C7.11205 4.1955 7.324 3.96841 7.47086 3.7001C7.61773 3.43179 7.6948 3.13087 7.695 2.825C7.695 1.82225 6.87575 1 5.87 1C5.40384 1.00019 4.95553 1.17925 4.6175 1.50025C4.411 1.44775 4.195 1.42 3.9725 1.42C3.75 1.42 3.534 1.44775 3.3275 1.50025C2.98961 1.17903 2.54121 0.999939 2.075 1ZM5.2275 7.2575H2.8185L2.6845 7.255C2.29117 7.24812 1.91627 7.08707 1.6405 6.80653C1.36473 6.52599 1.21014 6.14839 1.21 5.755C1.21 5.52725 1.263 5.313 1.354 5.11825L1.3595 5.1065L1.702 4.1155L1.502 4.01875C1.0575 3.8035 0.75 3.34775 0.75 2.825C0.75 2.098 1.348 1.5 2.075 1.5C2.4675 1.5 2.8215 1.67275 3.0655 1.9475L3.1735 2.0695L3.3285 2.02C3.53665 1.95336 3.75394 1.91962 3.9725 1.92C4.1975 1.92 4.41375 1.955 4.61625 2.02L4.77125 2.0695L4.8795 1.94775C5.00355 1.80733 5.15598 1.69481 5.32672 1.61763C5.49746 1.54045 5.68263 1.50035 5.87 1.5C6.59925 1.5 7.195 2.09775 7.195 2.825C7.195 3.349 6.8875 3.805 6.4415 4.02L6.241 4.1165L6.58775 5.1185L6.59275 5.1295C6.6815 5.322 6.73225 5.533 6.73 5.7525V5.755C6.73 6.15349 6.5717 6.53565 6.28993 6.81743C6.00815 7.0992 5.62599 7.2575 5.2275 7.2575Z" fill="white"/>
</svg>
