<svg width="8" height="9" viewBox="0 0 8 9" fill="none" xmlns="http://www.w3.org/2000/svg">
<path fill-rule="evenodd" clip-rule="evenodd" d="M6.16668 1.1665C6.42208 1.16639 6.67045 1.25008 6.8737 1.40475C7.07694 1.55941 7.22382 1.77649 7.29179 2.02268C7.35976 2.26886 7.34507 2.53055 7.24997 2.76759C7.15487 3.00462 6.98462 3.2039 6.76534 3.33484C6.93757 3.7443 7.01672 4.18689 6.99707 4.63066C6.97743 5.07443 6.85949 5.5083 6.65175 5.90094C6.44402 6.29357 6.15169 6.63518 5.79587 6.90109C5.44005 7.167 5.02961 7.35058 4.59421 7.43856C4.15881 7.52654 3.7093 7.51673 3.27814 7.40985C2.84699 7.30296 2.44495 7.10167 2.10107 6.82049C1.75718 6.53932 1.48002 6.18529 1.28961 5.78397C1.0992 5.38264 1.00028 4.94404 1.00001 4.49984C1.00001 4.0865 1.08334 3.69317 1.23468 3.33484C1.08236 3.24379 0.952824 3.11919 0.855922 2.97052C0.759021 2.82186 0.697309 2.65305 0.675484 2.47694C0.653658 2.30083 0.672294 2.12207 0.729973 1.95425C0.787653 1.78643 0.882855 1.63398 1.00833 1.5085C1.13382 1.38302 1.28627 1.28781 1.45409 1.23013C1.62191 1.17245 1.80067 1.15382 1.97678 1.17564C2.15289 1.19747 2.3217 1.25918 2.47036 1.35608C2.61903 1.45298 2.74362 1.58252 2.83468 1.73484C3.20353 1.57944 3.59976 1.49942 4.00001 1.4995C4.41334 1.4995 4.80668 1.58284 5.16501 1.73417C5.26862 1.561 5.41538 1.41767 5.59094 1.31817C5.76651 1.21867 5.96488 1.16642 6.16668 1.1665ZM4.00001 2.1665C3.69359 2.1665 3.39018 2.22686 3.10708 2.34412C2.82399 2.46138 2.56676 2.63325 2.35009 2.84992C2.13342 3.06659 1.96155 3.32382 1.84429 3.60691C1.72703 3.89 1.66668 4.19342 1.66668 4.49984C1.66668 4.80626 1.72703 5.10967 1.84429 5.39277C1.96155 5.67586 2.13342 5.93308 2.35009 6.14975C2.56676 6.36642 2.82399 6.5383 3.10708 6.65556C3.39018 6.77282 3.69359 6.83317 4.00001 6.83317C4.61885 6.83317 5.21234 6.58734 5.64993 6.14975C6.08751 5.71217 6.33334 5.11868 6.33334 4.49984C6.33334 3.881 6.08751 3.28751 5.64993 2.84992C5.21234 2.41234 4.61885 2.1665 4.00001 2.1665ZM4.00001 4.49984C4.10087 4.49978 4.1994 4.53022 4.28264 4.58718C4.36588 4.64413 4.42996 4.72493 4.46644 4.81896C4.50293 4.91299 4.51013 5.01586 4.48709 5.11405C4.46405 5.21225 4.41185 5.30118 4.33734 5.36917C4.34554 5.40621 4.36612 5.43935 4.3957 5.46311C4.42528 5.48687 4.46207 5.49982 4.50001 5.49984C4.58842 5.49984 4.6732 5.53496 4.73571 5.59747C4.79822 5.65998 4.83334 5.74477 4.83334 5.83317C4.83334 5.92158 4.79822 6.00636 4.73571 6.06887C4.6732 6.13139 4.58842 6.1665 4.50001 6.1665C4.3197 6.1665 4.14426 6.10802 4.00001 5.99984C3.85576 6.10802 3.68032 6.1665 3.50001 6.1665C3.4116 6.1665 3.32682 6.13139 3.26431 6.06887C3.2018 6.00636 3.16668 5.92158 3.16668 5.83317C3.16668 5.74477 3.2018 5.65998 3.26431 5.59747C3.32682 5.53496 3.4116 5.49984 3.50001 5.49984C3.53795 5.49982 3.57474 5.48687 3.60432 5.46311C3.6339 5.43935 3.65448 5.40621 3.66268 5.36917C3.58817 5.30118 3.53597 5.21225 3.51293 5.11405C3.48989 5.01586 3.49709 4.91299 3.53358 4.81896C3.57006 4.72493 3.63414 4.64413 3.71738 4.58718C3.80063 4.53022 3.89915 4.49978 4.00001 4.49984ZM3.00001 3.49984C3.08165 3.49985 3.16046 3.52982 3.22147 3.58408C3.28248 3.63833 3.32146 3.71309 3.33101 3.79417L3.33334 3.83317V4.1665C3.33325 4.25146 3.30072 4.33318 3.24239 4.39496C3.18407 4.45674 3.10436 4.49392 3.01955 4.49889C2.93473 4.50387 2.85122 4.47628 2.78607 4.42175C2.72092 4.36722 2.67904 4.28987 2.66901 4.2055L2.66668 4.1665V3.83317C2.66668 3.74477 2.7018 3.65998 2.76431 3.59747C2.82682 3.53496 2.9116 3.49984 3.00001 3.49984ZM5.00001 3.49984C5.08842 3.49984 5.1732 3.53496 5.23571 3.59747C5.29822 3.65998 5.33334 3.74477 5.33334 3.83317V4.1665C5.33334 4.25491 5.29822 4.33969 5.23571 4.40221C5.1732 4.46472 5.08842 4.49984 5.00001 4.49984C4.9116 4.49984 4.82682 4.46472 4.76431 4.40221C4.7018 4.33969 4.66668 4.25491 4.66668 4.1665V3.83317C4.66668 3.74477 4.7018 3.65998 4.76431 3.59747C4.82682 3.53496 4.9116 3.49984 5.00001 3.49984ZM1.83334 1.83317C1.72552 1.83317 1.62058 1.86802 1.53418 1.93254C1.44778 1.99705 1.38455 2.08777 1.35393 2.19116C1.3233 2.29454 1.32692 2.40506 1.36424 2.50622C1.40156 2.60739 1.47058 2.69378 1.56101 2.7525C1.75217 2.48566 1.98583 2.252 2.25268 2.06084C2.20729 1.99095 2.14515 1.93352 2.07192 1.89376C1.99869 1.854 1.91668 1.83317 1.83334 1.83317ZM6.16668 1.83317C6.08335 1.83317 6.00133 1.854 5.9281 1.89376C5.85487 1.93352 5.79273 1.99095 5.74734 2.06084C6.01419 2.252 6.24785 2.48566 6.43901 2.7525C6.52968 2.69391 6.59893 2.60754 6.63641 2.5063C6.67388 2.40507 6.67757 2.29442 6.64691 2.19092C6.61624 2.08741 6.55289 1.99662 6.46632 1.93213C6.37975 1.86764 6.27463 1.83292 6.16668 1.83317Z" fill="white"/>
</svg>
