<svg width="8" height="9" viewBox="0 0 8 9" fill="none" xmlns="http://www.w3.org/2000/svg">
<path d="M2.26004 2.6075C2.28254 2.575 2.30504 2.545 2.33004 2.515V2.5125C2.51504 2.2825 2.74754 2.0925 3.01004 1.955C2.92004 1.83 2.77254 1.75 2.60754 1.75C2.33254 1.75 2.10754 1.975 2.10754 2.25C2.10754 2.39 2.16504 2.5175 2.26004 2.6075ZM4.99004 1.9575C5.2531 2.09389 5.48473 2.28379 5.67004 2.515L5.69279 2.54425C5.71029 2.56592 5.72688 2.58783 5.74254 2.61C5.83504 2.52 5.89504 2.3925 5.89504 2.2525C5.89504 1.9775 5.67004 1.7525 5.39504 1.7525C5.23004 1.7525 5.08254 1.8325 4.99004 1.9575ZM3.01004 3.375C2.91004 3.375 2.82904 3.42975 2.77754 3.4985C2.72604 3.56725 2.69754 3.6565 2.69754 3.75V4C2.69754 4.0935 2.72604 4.18275 2.77754 4.2515C2.82904 4.32025 2.91004 4.375 3.01004 4.375C3.11004 4.375 3.19104 4.32025 3.24254 4.2515C3.29404 4.18275 3.32254 4.0935 3.32254 4V3.75C3.32254 3.6565 3.29404 3.56725 3.24254 3.4985C3.19104 3.42975 3.11004 3.375 3.01004 3.375ZM4.99004 3.375C4.89004 3.375 4.80904 3.42975 4.75754 3.4985C4.70604 3.56725 4.67754 3.6565 4.67754 3.75V4C4.67754 4.0935 4.70604 4.18275 4.75754 4.2515C4.80904 4.32025 4.89004 4.375 4.99004 4.375C5.09004 4.375 5.17104 4.32025 5.22254 4.2515C5.27404 4.18275 5.30254 4.0935 5.30254 4V3.75C5.30254 3.6565 5.27404 3.56725 5.22254 3.4985C5.17104 3.42975 5.09004 3.375 4.99004 3.375Z" fill="white"/>
<path d="M7.3525 3.675L7.165 3.5825C7.14979 3.57384 7.13274 3.56893 7.11525 3.56818C7.09776 3.56744 7.08035 3.57087 7.06446 3.57821C7.04857 3.58554 7.03466 3.59656 7.02388 3.61035C7.0131 3.62414 7.00577 3.64031 7.0025 3.6575C6.9925 3.7075 7.0175 3.76 7.0625 3.7825L7.3125 3.9075C7.4275 3.965 7.5 4.0825 7.5 4.21V5.8225C7.5 6.52 7.0375 7.1325 6.3675 7.325L4.1475 7.96C4.05 7.9875 3.9475 7.9875 3.8525 7.96L1.6325 7.325C1.30624 7.23139 1.0193 7.03418 0.814997 6.76313C0.610697 6.49208 0.500132 6.16192 0.5 5.8225V4.21C0.5 4.08 0.5725 3.9625 0.6875 3.905L0.9375 3.78C0.985 3.7575 1.01 3.7075 0.9975 3.655C0.98 3.58 0.905 3.5475 0.835 3.5825L0.6475 3.675C0.63207 3.68292 0.614864 3.68675 0.597531 3.68611C0.580198 3.68548 0.563319 3.6804 0.548512 3.67136C0.533706 3.66233 0.521469 3.64964 0.512974 3.63452C0.504479 3.6194 0.500012 3.60234 0.5 3.585V2.6025C0.500331 2.3765 0.590254 2.15986 0.750057 2.00006C0.90986 1.84025 1.1265 1.75033 1.3525 1.75H1.5L1.3525 1.3075C1.3025 1.1575 1.415 1 1.575 1H3.25C3.4125 1 3.57 1.0525 3.6975 1.1525C3.8775 1.285 3.9875 1.4925 3.9975 1.715H4C4.0125 1.4925 4.12 1.285 4.3 1.15C4.43 1.0525 4.5875 1 4.75 1H6.425C6.585 1 6.6975 1.1575 6.6475 1.3075L6.5 1.75H6.6475C6.8735 1.75033 7.09014 1.84025 7.24994 2.00006C7.40975 2.15986 7.49967 2.3765 7.5 2.6025V3.585C7.5 3.66 7.42 3.71 7.3525 3.675ZM5.58425 5.96075C5.91608 5.88324 6.21191 5.69569 6.42358 5.42864C6.63524 5.16159 6.7503 4.83076 6.75 4.49C6.75 4.1725 6.65 3.86 6.4625 3.6025L5.8875 2.8125C6.05 2.67 6.15 2.4575 6.1425 2.2225C6.13 1.8225 5.795 1.5 5.395 1.5C5.125 1.5 4.89 1.64 4.7575 1.8525C4.55465 2.04969 4.2829 2.16001 4 2.16001C3.7171 2.16001 3.44535 2.04969 3.2425 1.8525C3.17495 1.74442 3.08096 1.65533 2.96942 1.59365C2.85788 1.53198 2.73246 1.49974 2.605 1.5C2.205 1.5 1.8725 1.8225 1.8575 2.2225C1.85 2.46 1.95 2.67 2.1125 2.8125L1.5375 3.6025C1.35008 3.86041 1.24941 4.17118 1.25 4.49C1.2497 4.83151 1.36526 5.16303 1.57778 5.43036C1.7903 5.69769 2.08722 5.88503 2.42 5.96175C2.39033 5.79925 2.37533 5.62317 2.375 5.4335H2.37875C2.36804 5.32701 2.37974 5.21946 2.41309 5.11777C2.44645 5.01607 2.50073 4.92249 2.57243 4.84304C2.64414 4.76358 2.73168 4.70002 2.82943 4.65644C2.92718 4.61286 3.03298 4.59023 3.14 4.59C3.15556 4.59029 3.17099 4.5872 3.18523 4.58094C3.19948 4.57468 3.21219 4.5654 3.2225 4.55375L3.223 4.55325L3.7205 3.97825C3.755 3.93826 3.79771 3.90618 3.84573 3.88419C3.89375 3.8622 3.94594 3.85082 3.99875 3.85082C4.05156 3.85082 4.10375 3.8622 4.15177 3.88419C4.19979 3.90618 4.2425 3.93826 4.277 3.97825L4.7735 4.55225C4.78414 4.56399 4.7971 4.5734 4.81156 4.5799C4.82601 4.5864 4.84165 4.58984 4.8575 4.59C4.9647 4.59 5.07071 4.61245 5.16871 4.65592C5.2667 4.69938 5.3545 4.76289 5.42646 4.84236C5.49841 4.92182 5.55291 5.01548 5.58647 5.1173C5.62002 5.21911 5.63187 5.32683 5.62125 5.4335H5.625C5.62483 5.62383 5.61125 5.79958 5.58425 5.96075ZM3.86 5.43L3.3725 4.9425C3.34854 4.91912 3.3344 4.88748 3.33296 4.85404C3.33152 4.82059 3.34289 4.78785 3.36475 4.7625C3.30077 4.81304 3.22153 4.84036 3.14 4.84C2.85675 4.84 2.625 5.07125 2.625 5.3575C2.625 5.49475 2.67952 5.62638 2.77657 5.72343C2.87362 5.82048 3.00525 5.875 3.1425 5.875H3.465C3.64375 5.875 3.803 5.7825 3.896 5.64325L3.99925 5.48825C3.94701 5.48777 3.89703 5.46686 3.86 5.43ZM3.47 4.715H4.5375C4.559 4.71517 4.57817 4.71933 4.595 4.7275L4.587 4.7185L4.5855 4.71675L4.088 4.14175C4.07697 4.12887 4.06328 4.11853 4.04787 4.11144C4.03247 4.10435 4.01571 4.10067 3.99875 4.10067C3.98179 4.10067 3.96503 4.10435 3.94963 4.11144C3.93422 4.11853 3.92053 4.12887 3.9095 4.14175L3.4125 4.71625L3.41225 4.7165C3.40592 4.724 3.39942 4.731 3.39275 4.7375C3.41568 4.72247 3.44258 4.71463 3.47 4.715ZM4.6325 4.9425L4.145 5.43C4.10644 5.46762 4.05462 5.48854 4.00075 5.48825L4.104 5.64325C4.197 5.78275 4.3565 5.875 4.535 5.875H4.8575C4.99475 5.875 5.12638 5.82048 5.22343 5.72343C5.32048 5.62638 5.375 5.49475 5.375 5.3575C5.375 5.22025 5.32048 5.08862 5.22343 4.99157C5.12638 4.89452 4.99475 4.84 4.8575 4.84C4.782 4.84 4.7095 4.81575 4.6495 4.77375C4.66685 4.79943 4.67464 4.83037 4.67154 4.8612C4.66843 4.89203 4.65462 4.9208 4.6325 4.9425ZM4.8575 6.125H4.535C4.33505 6.12472 4.14309 6.04641 4 5.90675C3.85691 6.04641 3.66495 6.12472 3.465 6.125H3.1425C2.97363 6.12524 2.80943 6.0696 2.6755 5.96675C2.74125 6.28775 2.868 6.53425 3.03175 6.71425C3.276 6.9825 3.6155 7.11525 4 7.11525C4.38875 7.11525 4.7275 6.99725 4.9695 6.73925C5.137 6.561 5.26575 6.308 5.33 5.96225C5.19516 6.06787 5.02878 6.12517 4.8575 6.125Z" fill="white"/>
</svg>
